<svg width="122.87999999999998" height="109.81999999999998" xmlns="http://www.w3.org/2000/svg" xml:space="preserve" version="1.1">

 <g>
  <title>Layer 1</title>
  <g id="svg_1">
   <path fill="#DDDDDD" id="svg_2" clip-rule="evenodd" fill-rule="evenodd" d="m59.69,20.93c1.4,0 2.78,0.08 4.14,0.24l0,-11.8c-0.65,-0.24 -1.22,-0.62 -1.7,-1.1c-0.88,-0.88 -1.42,-2.08 -1.42,-3.42c0,-1.33 0.54,-2.54 1.42,-3.42c0.88,-0.88 2.08,-1.42 3.42,-1.42c1.33,0 2.54,0.54 3.42,1.42c0.88,0.88 1.42,2.08 1.42,3.42c0,1.33 -0.54,2.54 -1.42,3.42c-0.47,0.47 -1.06,0.86 -1.7,1.1l0,12.37c3.22,0.7 6.27,1.84 9.09,3.35l0,-4.56c0,-0.95 0.77,-1.72 1.72,-1.72l12.04,0c0.24,-0.61 0.61,-1.16 1.07,-1.62c0.88,-0.88 2.08,-1.42 3.42,-1.42c1.33,0 2.54,0.54 3.42,1.42c0.88,0.88 1.42,2.08 1.42,3.42c0,1.33 -0.54,2.54 -1.42,3.42c-0.88,0.88 -2.08,1.42 -3.42,1.42l0,0c-1.34,0 -2.55,-0.54 -3.41,-1.42c-0.5,-0.5 -0.89,-1.11 -1.13,-1.79l-10.25,0l0,4.96c7.16,4.96 12.4,12.49 14.38,21.26l21.84,0l0,-17.63c-0.53,-0.24 -1.02,-0.58 -1.42,-0.99c-0.88,-0.88 -1.42,-2.08 -1.42,-3.42c0,-1.33 0.54,-2.54 1.42,-3.42c0.88,-0.88 2.08,-1.42 3.42,-1.42c1.33,0 2.54,0.54 3.42,1.42c0.88,0.88 1.42,2.08 1.42,3.42c0,1.33 -0.54,2.54 -1.42,3.42c-0.55,0.55 -1.23,0.96 -1.98,1.2l0,19.15c0,0.95 -0.77,1.72 -1.72,1.72l-22.95,0c0.18,1.44 0.27,2.91 0.27,4.41c0,2 -0.17,3.96 -0.49,5.87l18.91,0c0.24,-0.65 0.62,-1.22 1.1,-1.7c0.88,-0.88 2.08,-1.42 3.42,-1.42c1.33,0 2.54,0.54 3.42,1.42c0.88,0.88 1.42,2.08 1.42,3.42c0,1.33 -0.54,2.54 -1.42,3.42c-0.88,0.88 -2.08,1.42 -3.42,1.42c-1.33,0 -2.54,-0.54 -3.42,-1.42c-0.47,-0.47 -0.86,-1.05 -1.1,-1.7l-19.66,0c-2.22,8.14 -7.26,15.11 -14.02,19.79l0,2.15l10.25,0c0.24,-0.68 0.63,-1.29 1.13,-1.79c0.86,-0.88 2.08,-1.42 3.41,-1.42l0,0c1.34,0 2.54,0.54 3.42,1.42c0.88,0.88 1.42,2.09 1.42,3.42c0,1.34 -0.54,2.54 -1.42,3.42c-0.88,0.88 -2.09,1.42 -3.42,1.42c-1.34,0 -2.54,-0.54 -3.42,-1.42c-0.45,-0.45 -0.82,-1 -1.07,-1.62l-12.03,0c-0.95,0 -1.72,-0.77 -1.72,-1.72l0,-1.75c-2.82,1.51 -5.88,2.65 -9.09,3.35l0,9.56c0.65,0.24 1.23,0.63 1.7,1.1c0.88,0.88 1.42,2.09 1.42,3.42c0,1.34 -0.54,2.54 -1.42,3.42c-0.88,0.88 -2.09,1.42 -3.42,1.42c-1.34,0 -2.54,-0.54 -3.42,-1.42c-0.88,-0.88 -1.42,-2.09 -1.42,-3.42c0,-1.34 0.54,-2.54 1.42,-3.42c0.48,-0.48 1.05,-0.86 1.7,-1.1l0,-8.98c-1.36,0.16 -2.74,0.24 -4.14,0.24c-2.09,0 -4.14,-0.18 -6.13,-0.53l0,13.53c0,0.95 -0.77,1.72 -1.72,1.72l-19.16,0c-0.24,0.76 -0.65,1.44 -1.2,1.98c-0.88,0.88 -2.09,1.42 -3.42,1.42c-1.34,0 -2.54,-0.54 -3.42,-1.42c-0.88,-0.88 -1.42,-2.09 -1.42,-3.42c0,-1.34 0.54,-2.54 1.42,-3.42c0.88,-0.88 2.09,-1.42 3.42,-1.42c1.34,0 2.54,0.54 3.42,1.42c0.41,0.41 0.74,0.89 0.99,1.42l17.64,0l0,-12.59c-3.29,-0.92 -6.39,-2.31 -9.22,-4.09c-0.31,0.28 -0.71,0.45 -1.16,0.45l-10.46,0c-0.24,0.63 -0.62,1.19 -1.09,1.65c-0.88,0.88 -2.09,1.42 -3.42,1.42s-2.54,-0.54 -3.42,-1.42c-0.88,-0.87 -1.42,-2.08 -1.42,-3.42c0,-1.34 0.54,-2.54 1.42,-3.42c0.88,-0.88 2.09,-1.42 3.42,-1.42s2.54,0.54 3.42,1.42c0.49,0.49 0.88,1.09 1.12,1.75l7.51,0c-6.52,-5.53 -11.01,-13.37 -12.2,-22.27l-17.78,0l0,17.64c0.53,0.24 1.02,0.58 1.42,0.99c0.88,0.88 1.42,2.08 1.42,3.42c0,1.33 -0.54,2.54 -1.42,3.42c-0.88,0.88 -2.08,1.42 -3.42,1.42c-1.33,0 -2.54,-0.54 -3.42,-1.42c-0.88,-0.87 -1.42,-2.08 -1.42,-3.42c0,-1.33 0.54,-2.54 1.42,-3.42c0.55,-0.55 1.23,-0.96 1.98,-1.2l0,-19.14c0,-0.95 0.77,-1.72 1.72,-1.72l19.2,0c-0.02,-0.43 -0.02,-0.86 -0.02,-1.29c0,-3.11 0.4,-6.12 1.15,-8.99l-16.08,0c-0.24,0.65 -0.62,1.22 -1.1,1.7c-0.88,0.88 -2.08,1.42 -3.42,1.42c-1.33,0 -2.54,-0.54 -3.42,-1.42c-0.88,-0.88 -1.42,-2.08 -1.42,-3.42c0,-1.33 0.54,-2.54 1.42,-3.42c0.88,-0.88 2.08,-1.42 3.42,-1.42c1.33,0 2.54,0.54 3.42,1.42c0.47,0.47 0.86,1.05 1.1,1.7l17.17,0c2.32,-6.19 6.33,-11.55 11.46,-15.53l0,-1.84l-8.7,0c-0.24,0.66 -0.63,1.26 -1.12,1.75c-0.88,0.88 -2.09,1.42 -3.42,1.42s-2.54,-0.54 -3.42,-1.42c-0.88,-0.88 -1.42,-2.08 -1.42,-3.42c0,-1.34 0.54,-2.55 1.42,-3.42c0.88,-0.88 2.09,-1.42 3.42,-1.42s2.54,0.54 3.42,1.42c0.47,0.47 0.84,1.03 1.09,1.65l10.46,0c0.95,0 1.72,0.77 1.72,1.72l0,1.2c2.68,-1.61 5.59,-2.88 8.66,-3.75l0,-15.41l-17.63,0c-0.24,0.53 -0.58,1.02 -0.99,1.42c-0.88,0.88 -2.08,1.42 -3.42,1.42c-1.33,0 -2.54,-0.54 -3.42,-1.42c-0.88,-0.88 -1.42,-2.08 -1.42,-3.42c0,-1.33 0.54,-2.54 1.42,-3.42c0.88,-0.88 2.08,-1.42 3.42,-1.42c1.33,0 2.54,0.54 3.42,1.42c0.55,0.55 0.96,1.23 1.2,1.98l19.15,0c0.95,0 1.72,0.77 1.72,1.72l0,16.34c1.99,-0.35 4.04,-0.53 6.13,-0.53l0,0zm-14.24,31.85l2.83,0l0,-0.34l0,-5.63c0,-3.22 1.32,-6.14 3.44,-8.26l0,0c2.12,-2.12 5.05,-3.44 8.27,-3.44c3.22,0 6.14,1.32 8.26,3.44l0,0c2.12,2.12 3.44,5.05 3.44,8.26l0,5.63l0,0.34l2.25,0c0.5,0 0.91,0.41 0.91,0.91l0,19.26c0,0.5 -0.41,0.91 -0.91,0.91l-28.49,0c-0.5,0 -0.91,-0.41 -0.91,-0.91l0,-19.26c0,-0.5 0.41,-0.91 0.91,-0.91l0,0l0,0zm7.37,0l14.31,0l0,-0.34l0,-5.69c0,-1.97 -0.81,-3.76 -2.1,-5.06l0,0c-1.3,-1.3 -3.09,-2.1 -5.05,-2.1c-1.97,0 -3.76,0.81 -5.06,2.1c-1.3,1.3 -2.1,3.09 -2.1,5.06l0,5.69l0,0.34l0,0l0,0zm7.22,10.54l1.44,6.67l-3.96,0.01l1.16,-6.76c-1.08,-0.35 -1.87,-1.36 -1.87,-2.56c0,-1.48 1.2,-2.68 2.68,-2.68c1.48,0 2.68,1.2 2.68,2.68c0.02,1.31 -0.91,2.39 -2.13,2.64l0,0l0,0z" class="st0"/>
  </g>
 </g>
</svg>